<svg xmlns="http://www.w3.org/2000/svg" width="5721" height="3754" viewBox="0 0 5721 3754">
  <defs>
    <style>
      .cls-1 {
        fill: #030303;
        fill-rule: evenodd;
      }
    </style>
  </defs>
  <path id="Color_Fill_1" data-name="Color Fill 1" class="cls-1" d="M0,0H5721V2364c-171.26-.15-343.87,14.87-507,0q27.495-51,55-102-12-53.49-24-107-7.5-34.995-15-70-18-16.005-36-32l-58-55-76-18-64-15q-94.995,31.995-190,64V1837l-1734-24c-0.69,59.32,5.84,114.36,15,168q20.505,199.485,41,399H1272c-424.335,0-858.094,3.22-1272-7V0ZM4970,2093q61.995,4.005,124,8c10.64,42.35,22.28,81.56,33,128q3.495,16.005,7,32-20.505,43.995-41,88l-60,15q-34.5,4.005-69,8-51.495-4.005-103-8c-34.33,4.61-61.65,15.89-103,16q16.005-55.5,32-111h4q14.505,3.495,29,7c11.12-32.38,38.85-47.12,56-72q27.99-51.99,56-104Q4952.505,2096.505,4970,2093Z"/>
</svg>
