<?xml version="1.0" standalone="no"?>
<!DOCTYPE svg PUBLIC "-//W3C//DTD SVG 20010904//EN"
 "http://www.w3.org/TR/2001/REC-SVG-20010904/DTD/svg10.dtd">
<svg version="1.0" xmlns="http://www.w3.org/2000/svg"
 width="1280.000000pt" height="1211.000000pt" viewBox="0 0 1280.000000 1211.000000"
 preserveAspectRatio="xMidYMid meet">
<metadata>
Created by potrace 1.15, written by Peter Selinger 2001-2017
</metadata>
<g transform="translate(0.000000,1211.000000) scale(0.100000,-0.100000)"
fill="#000000" stroke="none">
<path d="M4265 12096 c-115 -37 -252 -142 -296 -227 -57 -113 -31 -203 146
-504 155 -262 210 -399 224 -553 14 -158 -6 -275 -99 -582 -60 -199 -74 -285
-66 -405 10 -142 32 -281 68 -425 41 -165 41 -244 1 -307 -15 -25 -45 -60 -66
-77 -36 -28 -45 -31 -110 -31 -62 0 -80 5 -134 34 -131 71 -291 235 -429 441
-138 207 -175 348 -279 1055 -66 453 -80 535 -106 639 -63 247 -259 448 -453
463 -166 14 -308 -93 -409 -307 -22 -46 -46 -107 -54 -135 -21 -73 -31 -343
-22 -545 10 -205 30 -298 111 -501 141 -358 335 -583 663 -768 182 -103 292
-194 425 -349 116 -136 179 -228 248 -364 126 -247 143 -395 56 -496 -61 -72
-245 -149 -324 -136 -67 11 -233 66 -329 108 -91 40 -169 83 -411 225 -163 95
-225 116 -345 116 -64 0 -113 -5 -135 -14 -132 -55 -190 -158 -170 -299 12
-85 41 -142 112 -218 82 -88 134 -111 268 -119 134 -8 471 -41 617 -60 123
-16 170 -34 234 -92 105 -95 103 -226 -5 -305 -86 -64 -300 -146 -674 -257
-417 -125 -592 -154 -1132 -191 -461 -32 -663 -59 -787 -105 -294 -111 -529
-331 -580 -544 -21 -90 -27 -332 -10 -426 43 -233 219 -500 385 -584 102 -51
176 -65 362 -65 146 -1 174 2 240 22 148 46 273 136 402 288 41 49 147 186
235 304 291 391 446 537 587 556 211 29 306 -265 176 -545 -108 -230 -290
-368 -725 -546 -192 -78 -424 -193 -520 -256 -44 -29 -119 -91 -167 -138 -97
-96 -108 -120 -108 -234 0 -125 59 -247 176 -365 197 -197 400 -144 705 183
143 154 398 483 535 690 84 128 151 196 230 232 73 33 183 30 257 -7 129 -65
247 -265 247 -418 0 -37 -16 -150 -35 -251 -44 -230 -45 -282 -6 -342 52 -80
114 -124 225 -158 118 -36 270 -21 343 35 34 26 80 105 103 179 36 114 100
200 172 229 50 21 81 20 128 -4 47 -24 70 -55 70 -95 0 -60 -230 -873 -352
-1245 -220 -671 -396 -1034 -982 -2033 -147 -250 -209 -374 -243 -484 -25 -82
-27 -101 -27 -268 0 -169 2 -185 27 -260 42 -128 81 -184 151 -220 56 -28 67
-30 165 -29 91 0 118 4 192 30 325 114 500 336 588 744 29 135 53 282 116 723
97 680 135 903 216 1249 201 874 490 1538 668 1538 74 0 194 -110 254 -234 48
-97 61 -169 61 -326 -1 -178 -25 -305 -113 -585 -32 -104 -66 -215 -74 -245
-98 -348 -40 -653 142 -744 70 -36 146 -47 305 -47 173 0 247 12 343 57 135
64 158 133 150 439 -4 111 -12 218 -21 256 -18 84 -91 245 -189 422 -119 217
-122 225 -121 402 1 130 4 161 26 232 66 217 219 351 392 341 69 -4 69 -4 117
-57 35 -37 71 -97 123 -204 232 -477 391 -1049 465 -1677 22 -189 25 -227 46
-515 25 -353 52 -527 105 -687 72 -214 211 -427 312 -479 56 -29 130 -25 204
10 157 74 216 185 216 411 -1 198 -29 284 -257 760 -221 461 -265 567 -391
930 -91 261 -158 484 -190 635 -39 183 -40 387 -4 524 48 182 112 267 220 290
81 18 131 14 188 -15 83 -41 125 -112 197 -334 119 -363 239 -599 383 -752 73
-77 129 -108 194 -108 84 0 213 57 274 122 52 54 58 91 48 268 -5 85 -9 227
-9 315 0 147 2 164 24 208 53 108 203 177 386 177 164 0 321 -63 444 -176 115
-107 177 -203 225 -349 55 -171 90 -399 137 -890 14 -148 31 -213 73 -267 74
-98 178 -148 323 -156 107 -5 192 16 305 75 173 91 220 184 198 398 -35 338
-142 549 -597 1183 -185 258 -222 318 -264 427 -57 146 -48 323 23 459 43 80
184 223 257 259 46 23 68 27 137 27 237 0 685 -195 882 -384 164 -156 240
-319 343 -731 58 -233 95 -350 156 -495 94 -219 192 -370 333 -512 92 -91 120
-112 196 -150 87 -42 91 -43 189 -43 93 0 105 2 165 32 116 57 231 197 274
332 38 120 47 205 53 502 8 405 -7 549 -83 784 -81 250 -181 416 -353 585
-188 184 -398 305 -600 346 -124 25 -344 15 -511 -22 -107 -24 -147 -28 -280
-28 -140 0 -163 3 -243 27 -108 33 -255 101 -333 154 -190 129 -266 321 -189
475 40 82 108 153 242 256 131 99 201 169 232 229 51 100 47 265 -9 380 -36
74 -101 135 -264 252 -198 141 -252 224 -244 378 10 196 112 296 515 505 576
299 980 419 1463 435 205 7 364 -5 640 -49 229 -36 340 -40 387 -15 65 35 131
140 184 298 30 86 33 104 33 219 0 100 -5 136 -21 182 -63 180 -204 304 -398
352 -350 87 -902 12 -1276 -174 -238 -118 -693 -437 -1215 -851 -376 -299
-500 -364 -737 -388 -227 -23 -456 49 -551 174 -75 98 -87 200 -35 303 65 131
224 224 522 308 286 80 514 262 622 497 64 141 71 252 25 432 -48 191 -77 233
-187 276 -84 32 -171 30 -245 -5 -92 -43 -162 -103 -349 -293 -206 -211 -264
-261 -352 -307 -117 -61 -226 -58 -357 10 -147 76 -261 207 -296 336 -20 76
-17 223 6 337 28 140 86 314 222 671 153 402 171 468 165 615 -7 164 -60 285
-166 375 -110 95 -238 134 -436 134 -307 0 -452 -92 -585 -369 -100 -210 -170
-448 -170 -583 0 -110 21 -199 87 -362 116 -286 129 -362 81 -460 -39 -78 -97
-141 -183 -199 -98 -65 -171 -92 -271 -98 -102 -7 -136 7 -259 107 -49 40
-108 81 -130 91 -52 23 -203 43 -276 36 -148 -13 -283 -128 -464 -392 -159
-232 -176 -246 -315 -253 -144 -7 -265 36 -310 111 -26 42 -37 104 -49 270
-12 163 -48 349 -94 485 -19 56 -73 173 -125 269 -95 177 -145 290 -163 370
-7 29 -14 268 -18 613 -7 625 -5 609 -71 642 -41 21 -98 22 -155 4z"/>
</g>
</svg>
