<?xml version="1.0" standalone="no"?>
<!DOCTYPE svg PUBLIC "-//W3C//DTD SVG 20010904//EN"
 "http://www.w3.org/TR/2001/REC-SVG-20010904/DTD/svg10.dtd">
<svg version="1.0" xmlns="http://www.w3.org/2000/svg"
 width="1280.000000pt" height="640.000000pt" viewBox="0 0 1280.000000 640.000000"
 preserveAspectRatio="xMidYMid meet">
<metadata>
Created by potrace 1.15, written by Peter Selinger 2001-2017
</metadata>
<g transform="translate(0.000000,640.000000) scale(0.100000,-0.100000)"
fill="#000000" stroke="none">
<path d="M2625 4171 c-86 -39 -127 -127 -107 -234 15 -78 46 -124 118 -172
100 -67 154 -116 221 -199 72 -89 107 -151 117 -211 11 -58 33 -94 63 -101 49
-13 76 6 113 81 32 64 35 78 38 175 5 128 -18 233 -78 358 -74 154 -152 245
-255 294 -73 34 -166 38 -230 9z"/>
<path d="M9260 4157 c-203 -47 -441 -285 -528 -531 -33 -90 -37 -239 -9 -297
24 -49 57 -63 101 -45 35 14 47 28 96 108 32 52 119 121 237 188 68 39 112 56
246 96 83 24 127 60 167 135 42 80 47 160 12 226 -50 95 -194 149 -322 120z"/>
<path d="M4210 4011 c-218 -31 -380 -177 -411 -370 -25 -155 50 -294 194 -362
72 -33 164 -49 297 -49 219 0 396 -93 472 -247 27 -56 32 -75 32 -143 0 -65
-5 -87 -29 -136 -37 -75 -108 -144 -188 -184 -122 -60 -467 -132 -717 -150
-221 -16 -368 3 -609 80 -238 77 -287 83 -640 86 -346 4 -430 13 -585 65 -129
43 -213 91 -324 183 -400 335 -654 466 -901 466 -115 -1 -165 -11 -249 -52
-98 -48 -151 -126 -160 -234 -6 -76 10 -125 55 -175 41 -45 109 -69 260 -93
102 -16 141 -33 172 -72 36 -46 21 -107 -38 -157 -45 -37 -112 -55 -238 -61
-137 -7 -282 -35 -409 -81 -96 -34 -194 -88 -194 -108 0 -7 1094 -8 3707 -4
2038 4 4915 7 6392 8 l2686 1 -130 34 c-224 59 -304 89 -704 264 -279 122
-424 160 -605 160 -132 0 -204 -13 -352 -61 -137 -44 -189 -48 -252 -18 -85
42 -121 139 -80 219 40 78 104 107 303 135 359 51 461 128 495 373 28 206 -57
354 -261 455 -147 73 -225 90 -404 90 -160 0 -232 -11 -373 -59 -331 -110
-636 -302 -1112 -700 -237 -198 -361 -288 -523 -381 -310 -177 -674 -283 -970
-283 -145 0 -240 24 -356 87 -341 188 -484 210 -1011 151 -348 -38 -573 -3
-790 122 -171 100 -283 225 -515 575 -94 143 -200 295 -234 337 -111 138 -253
235 -398 272 -75 20 -226 28 -303 17z"/>
<path d="M8098 3980 c-78 -23 -170 -114 -217 -214 -36 -76 -45 -129 -32 -186
18 -80 63 -85 100 -11 28 54 105 115 204 161 69 32 87 45 100 73 32 68 16 138
-38 165 -32 15 -87 21 -117 12z"/>
<path d="M5639 3936 c-125 -67 -186 -222 -159 -403 25 -161 83 -303 176 -424
50 -65 94 -100 166 -134 90 -42 152 -31 164 30 5 28 -1 48 -29 102 -19 38 -40
95 -46 128 -18 94 -13 268 9 365 28 121 26 157 -12 230 -43 81 -94 119 -169
126 -44 3 -63 0 -100 -20z"/>
<path d="M342 3899 c-86 -44 -116 -125 -72 -197 32 -53 84 -70 190 -64 111 6
206 -11 264 -49 63 -39 89 -41 106 -9 16 30 -11 115 -51 163 -74 89 -221 166
-334 174 -48 3 -69 0 -103 -18z"/>
<path d="M12300 3876 c-155 -43 -292 -174 -278 -266 6 -45 31 -47 104 -9 67
34 69 34 204 34 87 0 143 5 157 13 91 51 81 172 -19 221 -50 24 -101 26 -168
7z"/>
<path d="M1555 3850 c-104 -47 -140 -144 -95 -261 28 -74 50 -94 185 -159 167
-82 274 -174 330 -286 45 -89 78 -115 122 -95 59 27 89 191 58 311 -52 201
-208 409 -360 482 -73 34 -175 38 -240 8z"/>
<path d="M6900 3676 c-182 -41 -345 -128 -465 -251 -69 -69 -108 -136 -130
-221 -17 -67 -13 -104 16 -130 35 -31 81 -23 157 29 58 40 83 51 163 67 141
29 258 34 368 16 141 -23 208 -3 290 90 67 76 77 174 27 253 -86 134 -241 188
-426 147z"/>
<path d="M11931 3200 c-53 -24 -148 -121 -178 -182 -56 -110 -36 -148 75 -148
78 0 198 30 259 66 111 65 111 209 -1 263 -53 26 -98 26 -155 1z"/>
<path d="M7927 3146 c-84 -30 -174 -115 -252 -236 -78 -122 -92 -189 -51 -237
24 -27 27 -28 123 -27 115 0 214 25 338 83 122 57 170 126 163 234 -10 144
-172 236 -321 183z"/>
<path d="M2524 3120 c-12 -4 -31 -21 -44 -37 -17 -22 -21 -37 -17 -70 7 -64
30 -90 110 -127 82 -37 169 -111 197 -166 24 -48 47 -57 74 -30 17 17 21 33
21 93 0 60 -5 83 -31 137 -38 80 -110 162 -167 189 -44 22 -106 26 -143 11z"/>
<path d="M3730 3081 c-133 -43 -201 -167 -155 -278 37 -88 90 -128 225 -171
197 -63 389 -61 414 3 13 34 5 88 -20 138 -56 109 -178 238 -274 288 -47 25
-144 35 -190 20z"/>
<path d="M12383 2789 c-61 -23 -126 -89 -121 -122 3 -19 9 -22 38 -19 91 8
160 2 209 -18 62 -24 83 -25 120 -5 66 34 56 122 -18 163 -51 29 -154 29 -228
1z"/>
<path d="M185 2741 c-46 -19 -72 -72 -56 -115 17 -43 82 -75 186 -92 31 -4 46
-2 64 13 23 18 23 20 7 58 -19 45 -77 109 -118 131 -30 16 -53 17 -83 5z"/>
</g>
</svg>
